<svg width="1000" height="600" xmlns="http://www.w3.org/2000/svg">
  <!-- Fondo principal -->
  <rect width="1000" height="600" fill="#0c1e2f"/>
  
  <!-- Degradado oscuro en la parte inferior -->
  <rect width="1000" height="200" y="400" fill="#000" opacity="0.4"/>
  
  <!-- Líneas de cuadrícula azul -->
  <g stroke="#1e5aa8" stroke-width="1" opacity="0.15">
    <!-- Líneas horizontales -->
    <line x1="0" y1="50" x2="1000" y2="50"/>
    <line x1="0" y1="100" x2="1000" y2="100"/>
    <line x1="0" y1="150" x2="1000" y2="150"/>
    <line x1="0" y1="200" x2="1000" y2="200"/>
    <line x1="0" y1="250" x2="1000" y2="250"/>
    <line x1="0" y1="300" x2="1000" y2="300"/>
    <line x1="0" y1="350" x2="1000" y2="350"/>
    <line x1="0" y1="400" x2="1000" y2="400"/>
    <line x1="0" y1="450" x2="1000" y2="450"/>
    <line x1="0" y1="500" x2="1000" y2="500"/>
    <line x1="0" y1="550" x2="1000" y2="550"/>
    
    <!-- Líneas verticales -->
    <line x1="50" y1="0" x2="50" y2="600"/>
    <line x1="100" y1="0" x2="100" y2="600"/>
    <line x1="150" y1="0" x2="150" y2="600"/>
    <line x1="200" y1="0" x2="200" y2="600"/>
    <line x1="250" y1="0" x2="250" y2="600"/>
    <line x1="300" y1="0" x2="300" y2="600"/>
    <line x1="350" y1="0" x2="350" y2="600"/>
    <line x1="400" y1="0" x2="400" y2="600"/>
    <line x1="450" y1="0" x2="450" y2="600"/>
    <line x1="500" y1="0" x2="500" y2="600"/>
    <line x1="550" y1="0" x2="550" y2="600"/>
    <line x1="600" y1="0" x2="600" y2="600"/>
    <line x1="650" y1="0" x2="650" y2="600"/>
    <line x1="700" y1="0" x2="700" y2="600"/>
    <line x1="750" y1="0" x2="750" y2="600"/>
    <line x1="800" y1="0" x2="800" y2="600"/>
    <line x1="850" y1="0" x2="850" y2="600"/>
    <line x1="900" y1="0" x2="900" y2="600"/>
    <line x1="950" y1="0" x2="950" y2="600"/>
  </g>
  
  <!-- Puntos de mira estilo militar -->
  <g fill="none" stroke="#fff" stroke-width="1" opacity="0.1">
    <!-- Punto de mira 1 -->
    <circle cx="200" cy="100" r="20"/>
    <line x1="200" y1="80" x2="200" y2="75"/>
    <line x1="200" y1="120" x2="200" y2="125"/>
    <line x1="180" y1="100" x2="175" y2="100"/>
    <line x1="220" y1="100" x2="225" y2="100"/>
    
    <!-- Punto de mira 2 -->
    <circle cx="800" cy="300" r="25"/>
    <line x1="800" y1="275" x2="800" y2="270"/>
    <line x1="800" y1="325" x2="800" y2="330"/>
    <line x1="775" y1="300" x2="770" y2="300"/>
    <line x1="825" y1="300" x2="830" y2="300"/>
    
    <!-- Punto de mira 3 -->
    <circle cx="400" cy="500" r="30"/>
    <line x1="400" y1="470" x2="400" y2="465"/>
    <line x1="400" y1="530" x2="400" y2="535"/>
    <line x1="370" y1="500" x2="365" y2="500"/>
    <line x1="430" y1="500" x2="435" y2="500"/>
  </g>
  
  <!-- Elementos gráficos adicionales -->
  <g stroke="#fff" stroke-width="1" fill="none" opacity="0.08">
    <!-- Elemento militar 1 -->
    <rect x="50" y="50" width="100" height="30" rx="5"/>
    <line x1="60" y1="65" x2="140" y2="65"/>
    
    <!-- Elemento militar 2 -->
    <rect x="850" y="150" width="80" height="80" rx="10"/>
    <line x1="850" y1="190" x2="930" y2="190"/>
    <line x1="890" y1="150" x2="890" y2="230"/>
    
    <!-- Elemento militar 3 -->
    <rect x="100" y="400" width="120" height="40" rx="5"/>
    <line x1="110" y1="420" x2="210" y2="420"/>
  </g>
</svg>